<svg width="34" height="44" viewBox="0 0 34 44" fill="none" xmlns="http://www.w3.org/2000/svg">
<path d="M17.0873 14.8745L19.3508 12.6234C20.4745 11.469 21.0969 9.92159 21.0838 8.31496C21.0707 6.70833 20.4231 5.17119 19.2807 4.03509C18.1383 2.89899 16.5927 2.25497 14.9772 2.24193C13.3617 2.22888 11.8057 2.84786 10.6449 3.96537L8.38141 6.21645C7.62052 6.97316 6.69247 7.54459 5.66866 7.88398L2 9.09957V9.53247L13.7529 21.2208H14.1882L15.4123 17.5723C15.7518 16.5558 16.3264 15.6329 17.0873 14.8745ZM17.0873 14.8745L17.2701 15.1602C19.3424 18.7428 22.6673 21.4423 26.6115 22.7446M26.6115 22.7446C26.8553 22.2111 27.2716 21.7752 27.7959 21.5078C28.3203 21.2405 28.9202 21.1573 29.4981 21.2718C30.076 21.3864 30.5979 21.6919 30.9791 22.1388C31.3604 22.5856 31.5784 23.1476 31.5979 23.7333C31.6174 24.319 31.4371 24.894 31.0865 25.3649C30.7358 25.8359 30.2353 26.175 29.6662 26.3273C29.0972 26.4796 28.4931 26.436 27.9522 26.2037C27.4112 25.9714 26.9651 25.564 26.6864 25.0476C26.4954 24.6958 26.3891 24.3047 26.3758 23.9051C26.3625 23.5054 26.4444 23.1082 26.6115 22.7446ZM7.22353 19.4892C6.99487 19.7166 6.72342 19.897 6.42467 20.02C6.12592 20.1431 5.80572 20.2064 5.48235 20.2064C4.82929 20.2064 4.20297 19.9484 3.74118 19.4892C3.51252 19.2618 3.33114 18.9918 3.2074 18.6947C3.08365 18.3976 3.01996 18.0792 3.01996 17.7576C3.01996 17.1081 3.27939 16.4852 3.74118 16.026M19.3491 3.9671L21.3271 2M16.8 36.8052C16.8 35.6623 16.9968 34.516 17.5226 33.4978C19.4887 29.7007 22.7323 26.7102 26.6881 25.0476M16.8 36.8052C26.3765 36.8052 31.6 40.2684 31.6 40.2684V42H2V40.2684C2 40.2684 7.22353 36.8052 16.8 36.8052Z" stroke="white" stroke-width="3"/>
</svg>
