<svg width="42" height="35" viewBox="0 0 42 35" fill="none" xmlns="http://www.w3.org/2000/svg">
<path d="M9.36362 1.21333C9.21524 0.855026 8.96135 0.548291 8.63442 0.332345C8.30749 0.116398 7.92237 0.00105182 7.5283 0.00105182C7.13423 0.00105182 6.74911 0.116398 6.42218 0.332345C6.09525 0.548291 5.84137 0.855026 5.69298 1.21333L0.542038 13.6578C0.356772 14.1331 0.368748 14.6607 0.575396 15.1275C0.782043 15.5942 1.16689 15.9629 1.64733 16.1542C2.12778 16.3456 2.66552 16.3445 3.14514 16.1512C3.62476 15.9578 4.00803 15.5876 4.21268 15.12L4.99879 13.2222H10.0578L10.8439 15.12C11.0486 15.5876 11.4318 15.9578 11.9115 16.1512C12.3911 16.3445 12.9288 16.3456 13.4093 16.1542C13.8897 15.9629 14.2746 15.5942 14.4812 15.1275C14.6879 14.6607 14.6998 14.1331 14.5146 13.6578L9.36362 1.21333ZM7.5283 7.10889L8.44755 9.33333H6.60906L7.5283 7.11044V7.10889ZM0 23.7222C0 22.6489 0.887547 21.7778 1.98113 21.7778H40.0189C40.279 21.7778 40.5367 21.8281 40.777 21.9258C41.0174 22.0235 41.2358 22.1667 41.4197 22.3473C41.6037 22.5278 41.7496 22.7422 41.8492 22.9781C41.9488 23.214 42 23.4669 42 23.7222C42 23.9776 41.9488 24.2304 41.8492 24.4663C41.7496 24.7022 41.6037 24.9166 41.4197 25.0972C41.2358 25.2777 41.0174 25.4209 40.777 25.5187C40.5367 25.6164 40.279 25.6667 40.0189 25.6667H1.98113C0.887547 25.6667 0 24.7956 0 23.7222ZM0 33.0556C0 31.9822 0.887547 31.1111 1.98113 31.1111H40.0189C40.5443 31.1111 41.0482 31.316 41.4197 31.6806C41.7913 32.0453 42 32.5399 42 33.0556C42 33.5713 41.7913 34.0658 41.4197 34.4305C41.0482 34.7951 40.5443 35 40.0189 35H1.98113C0.887547 35 0 34.1289 0 33.0556ZM18.2264 2.38824e-08C17.1328 2.38824e-08 16.2453 0.871111 16.2453 1.94444V14.3889C16.2453 15.4622 17.1328 16.3333 18.2264 16.3333H22.5849C23.6071 16.3333 24.6062 16.0348 25.455 15.4758C26.3037 14.9168 26.9639 14.1225 27.3514 13.1941C27.7388 12.2658 27.8361 11.2452 27.6308 10.2624C27.4255 9.27959 26.9269 8.37895 26.1985 7.67511C26.6718 6.90833 26.9288 6.03181 26.9433 5.1354C26.9577 4.239 26.729 3.35495 26.2806 2.57388C25.8322 1.79281 25.1803 1.14281 24.3916 0.69052C23.6029 0.23823 22.7059 -8.71052e-05 21.7925 2.38824e-08H18.2264ZM20.2075 12.4444V10.1111H22.5849C22.9002 10.1111 23.2025 10.234 23.4254 10.4528C23.6483 10.6716 23.7736 10.9684 23.7736 11.2778C23.7736 11.5872 23.6483 11.8839 23.4254 12.1027C23.2025 12.3215 22.9002 12.4444 22.5849 12.4444H20.2075ZM21.7925 6.22222H20.2075V3.88889H21.7925C22.1077 3.88889 22.4101 4.01181 22.633 4.2306C22.8559 4.44939 22.9811 4.74614 22.9811 5.05556C22.9811 5.36497 22.8559 5.66172 22.633 5.88051C22.4101 6.09931 22.1077 6.22222 21.7925 6.22222ZM32.8868 8.16667C32.8868 6.40889 33.3448 5.33556 33.8488 4.73978C34.3259 4.17356 34.9646 3.88889 35.7428 3.88889C36.6303 3.88889 37.3499 4.25756 37.8777 5.20644C38.0024 5.43054 38.171 5.62832 38.3736 5.78849C38.5763 5.94866 38.8091 6.06808 39.0588 6.13994C39.3084 6.21181 39.5701 6.2347 39.8288 6.20731C40.0875 6.17993 40.3381 6.1028 40.5665 5.98033C40.7948 5.85787 40.9963 5.69246 41.1595 5.49356C41.3227 5.29466 41.4443 5.06617 41.5176 4.82111C41.5908 4.57606 41.6141 4.31925 41.5862 4.06535C41.5583 3.81145 41.4797 3.56543 41.3549 3.34133C40.1552 1.18378 38.1249 2.38824e-08 35.7444 2.38824e-08C33.8504 2.38824e-08 32.069 0.751333 30.7963 2.26022C29.549 3.738 28.9245 5.77578 28.9245 8.16667C28.9245 10.5576 29.549 12.5969 30.7963 14.0731C32.069 15.582 33.8504 16.3333 35.7428 16.3333C38.1297 16.3333 40.1647 15.1433 41.3629 12.9764C41.5973 12.5249 41.6429 12.0013 41.4898 11.5172C41.3368 11.0332 40.9972 10.6269 40.5435 10.385C40.0897 10.143 39.5576 10.0845 39.0606 10.2219C38.5635 10.3594 38.1408 10.6818 37.8824 11.1207C37.3546 12.0742 36.6335 12.4444 35.7428 12.4444C34.9646 12.4444 34.3259 12.1598 33.8488 11.5936C33.3448 10.9962 32.8868 9.92444 32.8868 8.16667Z" fill="white"/>
</svg>
