<svg width="26" height="25" viewBox="0 0 26 25" fill="none" xmlns="http://www.w3.org/2000/svg">
<path d="M1.28125 12.5C1.28125 14.8047 1.94531 16.9531 3.07812 18.75H22.8828C24.0156 16.9531 24.6797 14.8047 24.6797 12.5C24.6797 10.1953 24.0156 8.04688 22.8828 6.25H3.07812C1.94531 8.04688 1.28125 10.1953 1.28125 12.5Z" fill="#F9F9F9"/>
<path d="M22.9219 6.25C20.8516 2.96875 17.1797 0.78125 13 0.78125C8.82031 0.78125 5.14844 2.96875 3.07812 6.25H22.9219ZM3.07812 18.75C5.14844 22.0312 8.82031 24.2188 13 24.2188C17.1797 24.2188 20.8516 22.0312 22.9219 18.75H3.07812Z" fill="#B4D7EE"/>
<path d="M18.3516 12.4219L15.1484 12.3047V12.2656C15.6562 12.1875 16.0469 11.875 16.5938 11.9141C17.2578 11.9922 17.6484 11.6016 17.8828 11.5234C18.1562 11.4453 18.3125 11.6016 18.3125 11.5234C18.3516 11.4453 18.1562 11.2891 17.7656 11.3281C17.4141 11.3672 17.2969 11.6797 16.4766 11.6016C15.7734 11.5625 15.5391 11.8359 15.0313 11.8359V11.7969L17.9219 10.4687C17.9219 10.4687 18 10.4297 18 10.3516C17.9609 10.2734 17.8828 10.3125 17.8828 10.3125L14.9531 11.4844V11.4453C15.3828 11.1719 15.6172 10.7422 16.1641 10.5859C16.7891 10.3906 17.0234 9.92187 17.2188 9.72656C17.4141 9.53125 17.6484 9.64844 17.6484 9.57031C17.6484 9.49219 17.4141 9.41406 17.1016 9.60938C16.7891 9.80469 16.7891 10.1172 16.0078 10.3516C15.3438 10.5469 15.2266 10.8984 14.7578 11.1328L14.7188 11.0938L16.9062 8.75C16.9062 8.75 16.9844 8.67188 16.9453 8.63281C16.9062 8.59375 16.8281 8.67188 16.8281 8.67188L14.4844 10.8594L14.4453 10.8203C14.7578 10.3906 14.7969 9.92188 15.2266 9.57031C15.7344 9.14062 15.7344 8.63281 15.8516 8.39844C15.9688 8.16406 16.2031 8.16406 16.1641 8.08594C16.125 8.00781 15.8906 8.04687 15.6562 8.32031C15.4219 8.63281 15.5391 8.90625 14.9531 9.41406C14.4453 9.84375 14.4453 10.2344 14.1328 10.5859C14.1328 10.5859 14.0938 10.5859 14.0938 10.5469L15.1875 7.53906C15.1875 7.53906 15.2266 7.46094 15.1484 7.42188C15.0703 7.38281 15.0313 7.5 15.0313 7.5L13.7031 10.3906H13.6641C13.7813 9.88281 13.6641 9.41406 13.8984 8.94531C14.2109 8.35937 14.0156 7.85156 14.0156 7.61719C14.0547 7.34375 14.25 7.26562 14.2109 7.22656C14.1719 7.14844 13.9375 7.30469 13.8203 7.65625C13.7422 8.00781 13.9375 8.24219 13.5859 8.94531C13.2734 9.57031 13.4297 9.88281 13.2734 10.3516H13.2344L13.1172 7.14844C13.1172 7.14844 13.1172 7.03125 13.0391 7.03125C12.9609 7.03125 12.9609 7.14844 12.9609 7.14844L12.8438 10.3516H12.8047C12.7266 9.84375 12.4141 9.45312 12.4531 8.90625C12.5313 8.24219 12.1406 7.85156 12.0625 7.61719C11.9844 7.38281 12.1406 7.1875 12.0625 7.1875C11.9844 7.14844 11.8281 7.34375 11.8672 7.73437C11.9063 8.08594 12.2188 8.20313 12.1406 9.02344C12.1016 9.72656 12.375 9.96094 12.375 10.4687H12.3359L11.0078 7.57812C11.0078 7.57812 10.9688 7.5 10.8906 7.5C10.8125 7.53906 10.8516 7.61719 10.8516 7.61719L11.9453 10.625H11.9063C11.6328 10.1953 11.2031 9.96094 11.0469 9.41406C10.8516 8.78906 10.3828 8.55469 10.1875 8.35937C9.99219 8.16406 10.1094 7.92969 10.0312 7.92969C9.95312 7.92969 9.875 8.16406 10.0703 8.47656C10.2656 8.78906 10.5781 8.78906 10.8125 9.57031C11.0078 10.2344 11.3594 10.3516 11.5938 10.8203L11.5547 10.8594L9.21094 8.67188C9.21094 8.67188 9.13281 8.59375 9.09375 8.63281C9.05469 8.67188 9.13281 8.75 9.13281 8.75L11.3203 11.0938L11.2813 11.1328C10.8516 10.8203 10.3828 10.7812 10.0312 10.3516C9.60156 9.84375 9.09375 9.84375 8.85938 9.72656C8.625 9.60937 8.625 9.375 8.54688 9.41406C8.46875 9.45313 8.50781 9.6875 8.78125 9.92187C9.09375 10.1562 9.36719 10.0391 9.875 10.625C10.3047 11.1328 10.6953 11.1328 11.0469 11.4453C11.0469 11.4453 11.0469 11.4844 11.0078 11.4844L8 10.3906C8 10.3906 7.92188 10.3516 7.88281 10.4297C7.84375 10.5078 7.96094 10.5469 7.96094 10.5469L10.8516 11.875V11.9141C10.3438 11.7969 9.875 11.9141 9.40625 11.6797C8.82031 11.3672 8.3125 11.5625 8.07812 11.5625C7.80469 11.5234 7.72656 11.3281 7.6875 11.3672C7.60938 11.4062 7.76563 11.6406 8.11719 11.7578C8.46875 11.8359 8.70312 11.6406 9.40625 11.9922C10.0312 12.3047 10.3438 12.1484 10.8125 12.3047V12.3438L7.60938 12.4609C7.60938 12.4609 7.49219 12.4609 7.49219 12.5391C7.49219 12.6172 7.60938 12.6172 7.60938 12.6172L10.8125 12.7344V12.7734C10.3047 12.8516 9.91406 13.1641 9.36719 13.125C8.70313 13.0469 8.3125 13.4375 8.07812 13.5156C7.80469 13.5937 7.64844 13.4375 7.64844 13.5156C7.60937 13.5937 7.80469 13.75 8.19531 13.7109C8.58594 13.6719 8.66406 13.3984 9.48438 13.4375C10.1875 13.4766 10.4219 13.2031 10.9297 13.2031V13.2422L8.03906 14.5703C8.03906 14.5703 7.96094 14.6094 7.96094 14.6875C7.96094 14.7656 8.07812 14.7266 8.07812 14.7266L11.0859 13.6328V13.6719C10.6563 13.9453 10.4219 14.375 9.875 14.5313C9.25 14.7266 9.01562 15.1953 8.82031 15.3906C8.625 15.5859 8.39063 15.4688 8.39063 15.5469C8.39063 15.625 8.625 15.7031 8.9375 15.5078C9.25 15.3125 9.25 15 10.0312 14.7656C10.6953 14.5703 10.8125 14.2187 11.2813 13.9844L11.3203 14.0234L9.13281 16.3672C9.13281 16.3672 9.05469 16.4453 9.09375 16.4844C9.13281 16.5234 9.21094 16.4453 9.21094 16.4453L11.5547 14.2578L11.5938 14.2969C11.2812 14.7266 11.2422 15.1953 10.8125 15.5469C10.3047 15.9766 10.3047 16.4844 10.1875 16.7188C10.0703 16.9531 9.83594 16.9531 9.875 17.0312C9.91406 17.1094 10.1484 17.0703 10.3828 16.7969C10.6172 16.5234 10.5 16.2109 11.0859 15.7031C11.5938 15.2734 11.5938 14.8828 11.9063 14.5313C11.9063 14.5313 11.9453 14.5312 11.9453 14.5703L10.8516 17.5781C10.8516 17.5781 10.8125 17.6562 10.8906 17.6953C10.9688 17.7344 11.0078 17.6172 11.0078 17.6172L12.3359 14.7266H12.375C12.2578 15.2344 12.375 15.7031 12.1406 16.1719C11.8281 16.7578 12.0234 17.2656 11.9844 17.5C11.9453 17.7734 11.75 17.8516 11.7891 17.8906C11.8281 17.9688 12.0625 17.8125 12.1797 17.4609C12.2578 17.1094 12.0625 16.9141 12.4141 16.1719C12.7266 15.5469 12.5703 15.2344 12.7266 14.7656H12.7656L12.8828 17.9688C12.8828 17.9688 12.8828 18.0859 12.9609 18.0859C13.0391 18.0859 13.0391 17.9688 13.0391 17.9688L13.1563 14.7656H13.1953C13.2734 15.2734 13.5859 15.6641 13.5469 16.2109C13.4688 16.875 13.8594 17.2656 13.9375 17.5C14.0156 17.7734 13.8594 17.9297 13.9375 17.9297C14.0156 17.9688 14.1719 17.7734 14.1328 17.3828C14.0938 17.0312 13.7813 16.9141 13.8594 16.0938C13.8984 15.3906 13.625 15.1562 13.625 14.6484H13.6641L14.9922 17.5391C14.9922 17.5391 15.0313 17.6172 15.1094 17.6172C15.1875 17.5781 15.1484 17.5 15.1484 17.5L14.0156 14.4531H14.0547C14.3281 14.8828 14.7578 15.1172 14.9141 15.6641C15.1094 16.2891 15.5781 16.5234 15.7734 16.7188C15.9688 16.9141 15.8516 17.1484 15.9297 17.1484C16.0078 17.1484 16.0859 16.9141 15.8906 16.6016C15.6953 16.2891 15.3828 16.2891 15.1484 15.5078C14.9531 14.8438 14.6016 14.7266 14.3672 14.2578L14.4062 14.2188L16.75 16.4062C16.75 16.4062 16.8281 16.4844 16.8672 16.4453C16.9063 16.4062 16.8281 16.3281 16.8281 16.3281L14.6406 13.9844L14.6797 13.9453C15.1094 14.2578 15.5781 14.2969 15.9297 14.7266C16.3594 15.2344 16.8672 15.2344 17.1016 15.3516C17.3359 15.4688 17.3359 15.7031 17.4141 15.6641C17.4922 15.625 17.4531 15.3906 17.1797 15.1562C16.8672 14.9219 16.5938 15.0391 16.0859 14.4531C15.6563 13.9453 15.2656 13.9453 14.9141 13.5937C14.9141 13.5937 14.9141 13.5547 14.9531 13.5547L17.9609 14.6484C17.9609 14.6484 18.0391 14.6875 18.0781 14.6094C18.1172 14.5313 18 14.4922 18 14.4922L15.1094 13.1641V13.125C15.6172 13.2422 16.0859 13.125 16.5547 13.3594C17.1406 13.6719 17.6484 13.4766 17.8828 13.4766C18.1562 13.5156 18.2344 13.7109 18.2734 13.6719C18.3516 13.6328 18.1953 13.3984 17.8438 13.2812C17.4922 13.2031 17.2578 13.3984 16.5547 13.0469C15.9297 12.7344 15.6172 12.8906 15.1484 12.7344V12.6953L18.3516 12.5781C18.3516 12.5781 18.4688 12.5781 18.4688 12.5C18.4688 12.4219 18.3516 12.4219 18.3516 12.4219Z" fill="#F6B40E"/>
<path d="M14.1719 12.2266C14.0547 12.1094 13.8984 12.0312 13.7422 12.0312C13.5859 12.0312 13.4688 12.1094 13.3516 12.2266C13.5469 12.3828 13.8984 12.3828 14.1719 12.2266ZM14.0547 12.1875C13.9766 12.2656 13.8984 12.3047 13.8203 12.3047C13.8594 12.2656 13.8984 12.2266 13.8984 12.1875C13.8984 12.1484 13.8594 12.1094 13.8203 12.0703C13.9375 12.1094 14.0156 12.1484 14.0547 12.1875ZM13.625 12.0703C13.5859 12.1094 13.5859 12.1484 13.5859 12.1875C13.5859 12.2266 13.625 12.3047 13.6641 12.3047C13.5859 12.3047 13.5078 12.2656 13.4297 12.1875C13.5078 12.1484 13.5469 12.1094 13.625 12.0703Z" fill="#85340A"/>
<path d="M13.7812 11.9141C13.5469 11.9141 13.5078 11.9531 13.4297 12.0312C13.3125 12.1094 13.2734 12.1094 13.2734 12.1094C13.2734 12.1094 13.2734 12.1875 13.3125 12.1484C13.3516 12.1484 13.4297 12.1094 13.5078 12.0312C13.625 11.9531 13.7031 11.9531 13.8203 11.9531C14.1328 11.9531 14.2891 12.1875 14.3281 12.1875C14.3672 12.1875 14.0937 11.9141 13.7812 11.9141Z" fill="#85340A"/>
<path d="M13.1171 11.8751C13.0781 11.9532 13.0781 11.9923 13.0781 12.0704C13.039 12.3048 13.0781 12.5782 13.2343 12.8517C13.2343 12.8517 13.2734 12.8126 13.3124 12.8126C13.1562 12.6173 13.1171 12.3829 13.1171 12.1876C13.1171 12.0704 13.1952 11.9923 13.2343 11.9142C13.5077 11.6798 13.9765 11.7189 14.3671 12.0314C14.0156 11.5236 13.5077 11.5626 13.1171 11.8751Z" fill="#85340A"/>
<path d="M13.5078 12.3828C13.3906 12.3047 13.3516 12.2656 13.3125 12.2656C13.2734 12.2656 13.2734 12.3047 13.4297 12.3828C13.5859 12.4609 13.8984 12.5 14.1719 12.2656C13.8594 12.4219 13.625 12.4219 13.5078 12.3828ZM13.3125 13.0078C13.2734 13.0078 13.2344 12.9687 13.1953 12.9297C13.1953 12.9687 13.1172 13.0469 13 13.0469C12.8828 13.0469 12.8047 12.9297 12.8047 12.9297C12.8047 12.9687 12.7656 13.0078 12.6875 13.0078C12.6484 13.0078 12.5703 12.9688 12.5703 12.8906C12.5703 12.8516 12.6094 12.8125 12.6484 12.8125C12.5703 12.8125 12.5312 12.8906 12.5312 12.9688C12.5312 13.0469 12.6094 13.125 12.6875 13.125C12.7266 13.125 12.7656 13.0859 12.8047 13.0469C12.8437 13.0859 12.9609 13.0859 13 13.0859H13.0391C13.0781 13.0859 13.1562 13.0859 13.2344 13.0469C13.2734 13.0859 13.3125 13.125 13.3516 13.125C13.4297 13.125 13.5078 13.0469 13.5078 12.9688C13.5078 12.8906 13.4687 12.8516 13.3906 12.8125C13.4297 12.8125 13.4688 12.8516 13.4688 12.8906C13.4297 12.9688 13.3906 13.0078 13.3125 13.0078ZM13 13.3594C13.0781 13.3594 13.1563 13.2813 13.2734 13.3594C13.3906 13.4375 13.4688 13.4766 13.5469 13.5156C13.3906 13.3984 13.3125 13.2813 13.1563 13.2813C13.1172 13.2813 13.0391 13.2812 13 13.3203C12.9219 13.2812 12.8828 13.2813 12.8438 13.2813C12.6875 13.2813 12.6094 13.4375 12.4531 13.5156C12.5312 13.4766 12.6094 13.3984 12.7266 13.3594C12.8437 13.3203 12.9219 13.3594 13 13.3594Z" fill="#85340A"/>
<path d="M13 13.4767C12.9219 13.4767 12.8828 13.4376 12.7656 13.4767C12.6875 13.4767 12.6094 13.4767 12.4922 13.5157H12.4531C12.8047 13.5548 12.6484 13.7501 13 13.7501C13.3516 13.7501 13.1953 13.5548 13.5469 13.5157H13.4688C13.1563 13.3986 13.1172 13.4767 13 13.4767ZM13 13.672C12.7266 13.672 12.8047 13.4767 12.4922 13.4767C12.8047 13.3986 12.8438 13.5157 13 13.5157C13.1172 13.5157 13.1953 13.4376 13.5078 13.4767C13.1953 13.5157 13.2734 13.672 13 13.672ZM13 13.7501C12.8438 13.7501 12.6875 13.8673 12.6875 14.0626C12.7266 13.9064 12.8438 13.8282 13 13.8282C13.1562 13.8282 13.2734 13.9454 13.3125 14.0626C13.3125 13.8673 13.1562 13.7501 13 13.7501ZM12.7656 11.9142C12.8437 11.9923 12.8828 12.1095 12.8828 12.1876C12.9219 12.3829 12.8438 12.5782 12.6875 12.8126C12.6875 12.8126 12.7266 12.8126 12.7656 12.8517C12.8828 12.5782 12.9609 12.3439 12.9219 12.0704C12.9219 11.9923 12.8828 11.9532 12.8828 11.8751C12.5313 11.5626 12.0234 11.5236 11.6328 12.0314C12.0234 11.6798 12.5312 11.6407 12.7656 11.9142Z" fill="#85340A"/>
<path d="M12.5313 12.0703C12.6485 12.1484 12.6875 12.1875 12.7266 12.1875C12.7657 12.1875 12.7657 12.1484 12.7657 12.1484C12.7657 12.1484 12.6875 12.1484 12.6094 12.0703C12.4922 11.9922 12.4532 11.9531 12.2579 11.9531C11.9063 11.9531 11.711 12.2266 11.75 12.2266C11.7891 12.2266 11.9454 11.9922 12.2579 11.9922C12.336 11.9922 12.4532 11.9922 12.5313 12.0703Z" fill="#85340A"/>
<path d="M11.8672 12.2266C11.9453 12.3047 12.1016 12.3438 12.2578 12.3438C12.375 12.3438 12.5312 12.3047 12.6484 12.2266C12.5312 12.1094 12.375 12.0312 12.2187 12.0312C12.1016 12.0312 11.9453 12.1094 11.8672 12.2266ZM11.9453 12.2266C12.0234 12.1484 12.1016 12.0703 12.1797 12.0703C12.1406 12.1094 12.1016 12.1484 12.1016 12.1875C12.1016 12.2656 12.1406 12.3047 12.1797 12.3047C12.1016 12.3438 11.9844 12.3047 11.9453 12.2266ZM12.5312 12.1875C12.4922 12.2266 12.4141 12.2656 12.3359 12.3047C12.375 12.2656 12.375 12.2266 12.375 12.1875C12.375 12.1484 12.3359 12.1094 12.3359 12.0703C12.4531 12.1094 12.5312 12.1484 12.5312 12.1875Z" fill="#85340A"/>
<path d="M12.7266 12.2656C12.6875 12.2656 12.6484 12.3047 12.5312 12.3828C12.4141 12.4609 12.1797 12.4609 11.8672 12.3047C12.1406 12.5391 12.4531 12.5 12.6094 12.4219C12.7656 12.3047 12.7656 12.2656 12.7266 12.2656Z" fill="#85340A"/>
</svg>
