<svg width="69" height="90" viewBox="0 0 69 90" fill="none" xmlns="http://www.w3.org/2000/svg">
<path fill-rule="evenodd" clip-rule="evenodd" d="M22.9434 46.1332C22.9433 46.1333 22.9434 46.1331 22.9434 46.1332L22.9423 46.1328C15.2477 63.8553 -5.25633 72.1113 -23 64.576L4.42374 0C22.1674 7.53533 30.4649 28.0227 23.0555 45.8663L23.0565 45.8668L23.0576 45.8672C30.752 28.1445 51.2562 19.8883 69 27.4237L41.5761 92C23.8323 84.4646 15.5349 63.9771 22.9445 46.1334L22.9434 46.1332ZM22.9546 46.1066C22.9698 46.071 22.985 46.0355 23.0003 46C23.0153 45.9642 23.0303 45.9285 23.0455 45.8927C23.0303 45.9285 23.015 45.9642 22.9997 45.9999C22.9914 46.0196 22.9831 46.0392 22.9748 46.0589C22.9681 46.0748 22.9614 46.0907 22.9546 46.1066Z" fill="#3983ED"/>
</svg>
