<svg width="32" height="40" viewBox="0 0 32 40" fill="none" xmlns="http://www.w3.org/2000/svg">
<path d="M3.6 0C1.9074 0 0.5 1.39692 0.5 3.07692V32.3077C0.5 33.9877 1.9074 35.3846 3.6 35.3846H6.7V40L11.35 36.9231L16 40V28.9908C15.7861 29.1132 15.5582 29.2098 15.3211 29.2785C15.1552 29.6333 14.9201 29.952 14.6293 30.2161C14.3385 30.4802 13.9978 30.6844 13.6269 30.8169C13.299 30.9232 12.955 30.9721 12.6101 30.9615C12.1761 30.9615 11.7421 30.9062 11.35 30.7215C10.9531 30.8935 10.5226 30.9755 10.0899 30.9615C9.74265 30.9615 9.4032 30.9354 9.07305 30.8169C8.32504 30.5469 7.7153 29.9937 7.37735 29.2785C7.14094 29.2094 6.91358 29.1128 6.7 28.9908V32.3077H3.6V3.07692H28.4V32.3077H20.65C20.2389 32.3077 19.8447 32.4698 19.554 32.7583C19.2633 33.0468 19.1 33.4381 19.1 33.8462C19.1 34.2542 19.2633 34.6455 19.554 34.934C19.8447 35.2225 20.2389 35.3846 20.65 35.3846H28.4C30.0926 35.3846 31.5 33.9877 31.5 32.3077V3.07692C31.5 1.39692 30.0926 0 28.4 0H3.6ZM7.96015 7.69231C7.54906 7.73046 7.17008 7.92913 6.90658 8.24463C6.64308 8.56012 6.51664 8.96659 6.55507 9.37462C6.59351 9.78264 6.79368 10.1588 7.11154 10.4203C7.4294 10.6819 7.83891 10.8074 8.25 10.7692H23.75C24.1611 10.7692 24.5553 10.6071 24.846 10.3186C25.1367 10.0301 25.3 9.63879 25.3 9.23077C25.3 8.82274 25.1367 8.43143 24.846 8.14291C24.5553 7.8544 24.1611 7.69231 23.75 7.69231H8.25C8.20146 7.69004 8.15284 7.69004 8.1043 7.69231C8.05628 7.69009 8.00817 7.69009 7.96015 7.69231ZM7.96015 13.8462C7.54906 13.8843 7.17008 14.083 6.90658 14.3985C6.64308 14.714 6.51664 15.1204 6.55507 15.5285C6.59351 15.9365 6.79368 16.3126 7.11154 16.5742C7.4294 16.8357 7.83891 16.9612 8.25 16.9231H19.1C19.5111 16.9231 19.9053 16.761 20.196 16.4725C20.4867 16.184 20.65 15.7926 20.65 15.3846C20.65 14.9766 20.4867 14.5853 20.196 14.2968C19.9053 14.0082 19.5111 13.8462 19.1 13.8462H8.25C8.20146 13.8439 8.15284 13.8439 8.1043 13.8462C8.05628 13.8439 8.00817 13.8439 7.96015 13.8462ZM11.35 19.4708C11.0387 19.4711 10.7355 19.5688 10.4834 19.75C10.2313 19.9311 10.0431 20.1866 9.9457 20.48C9.88215 20.5015 9.8124 20.5046 9.75195 20.5292C9.48998 20.373 9.18499 20.3028 8.88049 20.3288C8.57599 20.3548 8.28752 20.4755 8.05625 20.6738C7.8221 20.8679 7.65444 21.1293 7.57642 21.4219C7.4984 21.7146 7.51387 22.0241 7.6207 22.3077C7.57885 22.3708 7.5618 22.4338 7.52305 22.5C7.22027 22.5501 6.94082 22.6928 6.72377 22.9082C6.50673 23.1236 6.36293 23.401 6.3125 23.7015C6.26273 23.9942 6.30598 24.2949 6.43625 24.5621C6.56651 24.8292 6.77733 25.0495 7.03945 25.1923C7.0503 25.2892 7.0193 25.3877 7.03945 25.4815C6.85231 25.7077 6.73829 25.9846 6.7123 26.2761C6.6863 26.5676 6.74954 26.8601 6.89375 27.1154C7.19445 27.6338 7.79275 27.9231 8.3957 27.8369C8.4732 27.9092 8.55225 27.9631 8.6375 28.0292C8.653 28.6246 9.03585 29.1677 9.60625 29.3754C10.1704 29.58 10.809 29.3831 11.2043 28.9415C11.2617 28.9446 11.2911 28.9908 11.35 28.9908C11.4135 28.9908 11.4802 28.9446 11.5437 28.9415C11.6776 29.0915 11.8417 29.2119 12.0254 29.2948C12.2091 29.3778 12.4083 29.4215 12.6101 29.4231C12.7775 29.4231 12.9295 29.4338 13.0938 29.3754C13.3725 29.2731 13.6139 29.0901 13.7866 28.8501C13.9593 28.6101 14.0555 28.3241 14.0625 28.0292C14.1446 27.9646 14.2253 27.9092 14.3043 27.8369C14.5985 27.8784 14.8986 27.8319 15.1661 27.7034C15.4336 27.5748 15.6564 27.3701 15.8062 27.1154C15.9508 26.86 16.0142 26.5672 15.9882 26.2753C15.9622 25.9835 15.848 25.7063 15.6606 25.48C15.6823 25.3877 15.6466 25.2862 15.6606 25.1923C15.9236 25.0505 16.1353 24.8304 16.2657 24.563C16.3961 24.2956 16.4387 23.9943 16.3875 23.7015C16.3373 23.4009 16.1936 23.1234 15.9765 22.908C15.7594 22.6925 15.4798 22.5498 15.1769 22.5C15.1397 22.4323 15.1212 22.3723 15.0793 22.3077C15.187 22.024 15.2029 21.714 15.1248 21.4209C15.0467 21.1278 14.8786 20.8662 14.6437 20.6723C14.4124 20.474 14.1238 20.3534 13.8193 20.3277C13.5147 20.302 13.2098 20.3725 12.948 20.5292C12.8861 20.5046 12.8179 20.5015 12.7543 20.4815C12.6571 20.1878 12.4691 19.9321 12.2169 19.7506C11.9648 19.5691 11.6614 19.4712 11.35 19.4708ZM11.35 22.1631C12.7233 22.1631 13.8207 23.2523 13.8207 24.6154C13.8207 25.9815 12.7248 27.0677 11.35 27.0677C11.025 27.0695 10.7029 27.0074 10.4023 26.8848C10.1017 26.7622 9.82862 26.5816 9.59882 26.3535C9.36903 26.1254 9.18711 25.8544 9.0636 25.556C8.94009 25.2577 8.87745 24.9379 8.8793 24.6154C8.8793 23.2508 9.9767 22.1631 11.35 22.1631Z" fill="white"/>
</svg>
