<svg width="25" height="25" viewBox="0 0 25 25" fill="none" xmlns="http://www.w3.org/2000/svg">
<g clip-path="url(#clip0_45_4230)">
<path d="M24.2188 12.5C24.2188 7.38281 20.9766 3.04688 16.4062 1.44531V23.5547C20.9766 21.9531 24.2188 17.6172 24.2188 12.5ZM0.78125 12.5C0.78125 17.6172 4.0625 21.9531 8.59375 23.5547V1.44531C4.0625 3.04688 0.78125 7.38281 0.78125 12.5Z" fill="#42ADE2"/>
<path d="M16.4062 1.44531C15.1953 1.01563 13.8672 0.78125 12.5 0.78125C11.1328 0.78125 9.80469 1.01563 8.59375 1.44531V23.5547C9.80469 23.9844 11.1328 24.2188 12.5 24.2188C13.8672 24.2188 15.1953 23.9844 16.4062 23.5547V1.44531Z" fill="#F9F9F9"/>
<path d="M10.5857 10.1172C10.5857 10.1172 10.3123 10.0391 10.117 10.0391C10.2732 9.76563 10.3514 9.29688 10.3514 9.29688C10.3514 9.29688 9.92167 9.53125 9.76542 9.80469C9.68729 9.60938 9.53104 9.41406 9.53104 9.41406C9.53104 9.41406 9.33573 9.64844 9.37479 9.84375C9.41386 10.0391 9.68729 10.3906 9.68729 10.3906C9.68729 10.3906 10.0779 10.5078 10.3123 10.4297C10.4295 10.3906 10.5857 10.1172 10.5857 10.1172Z" fill="#699635"/>
<path d="M10.1953 10.7422C10.1953 10.7422 9.92188 10.7422 9.72656 10.7812C9.80469 10.5078 9.76563 10 9.76563 10C9.76563 10 9.41406 10.3516 9.33594 10.625C9.21875 10.4688 8.98438 10.3125 8.98438 10.3125C8.98438 10.3125 8.86719 10.5859 8.94531 10.7812C9.02344 10.9766 9.375 11.2109 9.375 11.2109C9.375 11.2109 9.80469 11.2109 9.96094 11.0937C10.1172 11.0156 10.1953 10.7422 10.1953 10.7422Z" fill="#83BF4F"/>
<path d="M9.96084 11.4453C9.96084 11.4453 9.6874 11.5234 9.49209 11.6016C9.49209 11.2891 9.29678 10.8594 9.29678 10.8594C9.29678 10.8594 9.0624 11.2891 9.0624 11.5625C8.90615 11.4453 8.67178 11.3672 8.67178 11.3672C8.67178 11.3672 8.63271 11.6406 8.7499 11.8359C8.86709 11.9922 9.29678 12.1484 9.29678 12.1484C9.29678 12.1484 9.6874 12.0313 9.84365 11.875C9.9999 11.7188 9.96084 11.4453 9.96084 11.4453Z" fill="#699635"/>
<path d="M9.96094 12.1484C9.96094 12.1484 9.72656 12.2656 9.57031 12.4219C9.49219 12.1094 9.21875 11.7578 9.21875 11.7578C9.21875 11.7578 9.10156 12.2266 9.17969 12.5C8.98438 12.4219 8.75 12.4219 8.75 12.4219C8.75 12.4219 8.75 12.6953 8.94531 12.8516C9.10156 12.9688 9.53125 13.0078 9.53125 13.0078C9.53125 13.0078 9.88281 12.8125 10 12.6172C10.0391 12.4219 9.96094 12.1484 9.96094 12.1484Z" fill="#83BF4F"/>
<path d="M10.1172 12.8516C10.1172 12.8516 9.92188 13.0469 9.80469 13.2422C9.64844 12.9688 9.25781 12.6953 9.25781 12.6953C9.25781 12.6953 9.25781 13.1641 9.41406 13.4375C9.21875 13.4375 8.94531 13.4766 8.94531 13.4766C8.94531 13.4766 9.02344 13.75 9.25781 13.8281C9.45313 13.9063 9.88281 13.8281 9.88281 13.8281C9.88281 13.8281 10.1953 13.5547 10.2344 13.3203C10.2734 13.0859 10.1172 12.8516 10.1172 12.8516Z" fill="#699635"/>
<path d="M10.4687 13.4766C10.4687 13.4766 10.3125 13.7109 10.2734 13.9062C10.0781 13.6719 9.60938 13.5156 9.60938 13.5156C9.60938 13.5156 9.72656 13.9844 9.96094 14.2188C9.76563 14.2578 9.53125 14.375 9.53125 14.375C9.53125 14.375 9.6875 14.6094 9.92188 14.6484C10.1562 14.6875 10.5078 14.4922 10.5078 14.4922C10.5078 14.4922 10.7422 14.1406 10.7031 13.9062C10.7031 13.6719 10.4687 13.4766 10.4687 13.4766Z" fill="#83BF4F"/>
<path d="M10.9375 14.0234C10.9375 14.0234 10.8594 14.2969 10.8594 14.4922C10.5859 14.3359 10.1172 14.2578 10.1172 14.2578C10.1172 14.2578 10.3516 14.6875 10.625 14.8437C10.4297 14.9219 10.2344 15.0781 10.2344 15.0781C10.2344 15.0781 10.4687 15.2734 10.6641 15.2344C10.8594 15.1953 11.2109 14.9219 11.2109 14.9219C11.2109 14.9219 11.3281 14.5312 11.25 14.2969C11.1719 14.0625 10.9375 14.0234 10.9375 14.0234Z" fill="#699635"/>
<path d="M11.5625 14.4141C11.5625 14.4141 11.5625 14.6875 11.6016 14.8828C11.3281 14.8047 10.8203 14.8437 10.8203 14.8437C10.8203 14.8437 11.1719 15.1953 11.4453 15.2734C11.3281 15.3906 11.1719 15.625 11.1719 15.625C11.1719 15.625 11.4453 15.7422 11.6406 15.6641C11.8359 15.5859 12.0703 15.2344 12.0703 15.2344C12.0703 15.2344 12.0703 14.8047 11.9531 14.6484C11.875 14.4531 11.5625 14.4141 11.5625 14.4141Z" fill="#83BF4F"/>
<path d="M14.4141 10.1172C14.4141 10.1172 14.6875 10.0391 14.8828 10.0391C14.7266 9.76563 14.6484 9.29688 14.6484 9.29688C14.6484 9.29688 15.0781 9.53125 15.2344 9.80469C15.3125 9.60938 15.4687 9.41406 15.4687 9.41406C15.4687 9.41406 15.6641 9.64844 15.625 9.84375C15.5859 10.0391 15.3125 10.3906 15.3125 10.3906C15.3125 10.3906 14.9219 10.5078 14.6875 10.4297C14.5703 10.3906 14.4141 10.1172 14.4141 10.1172Z" fill="#699635"/>
<path d="M14.8047 10.7422C14.8047 10.7422 15.0781 10.7422 15.2734 10.7812C15.1953 10.5078 15.2344 10 15.2344 10C15.2344 10 15.5859 10.3516 15.6641 10.625C15.7812 10.4688 16.0156 10.3125 16.0156 10.3125C16.0156 10.3125 16.1328 10.5859 16.0547 10.7812C15.9766 10.9766 15.625 11.2109 15.625 11.2109C15.625 11.2109 15.1953 11.2109 15.0391 11.0937C14.8828 11.0156 14.8047 10.7422 14.8047 10.7422Z" fill="#83BF4F"/>
<path d="M15.0388 11.4453C15.0388 11.4453 15.3123 11.5234 15.5076 11.6016C15.5076 11.2891 15.7029 10.8594 15.7029 10.8594C15.7029 10.8594 15.9373 11.2891 15.9763 11.5625C16.1326 11.4453 16.367 11.3672 16.367 11.3672C16.367 11.3672 16.406 11.6406 16.2888 11.8359C16.1716 11.9922 15.742 12.1484 15.742 12.1484C15.742 12.1484 15.3513 12.0313 15.1951 11.875C14.9998 11.7188 15.0388 11.4453 15.0388 11.4453Z" fill="#699635"/>
<path d="M15.0393 12.1484C15.0393 12.1484 15.2736 12.2656 15.4299 12.4219C15.508 12.1094 15.7814 11.7578 15.7814 11.7578C15.7814 11.7578 15.8986 12.2266 15.8205 12.5C16.0158 12.4219 16.2502 12.4219 16.2502 12.4219C16.2502 12.4219 16.2502 12.6953 16.0549 12.8516C15.8986 12.9688 15.4689 13.0078 15.4689 13.0078C15.4689 13.0078 15.1174 12.8125 15.0002 12.6172C14.9611 12.4219 15.0393 12.1484 15.0393 12.1484Z" fill="#83BF4F"/>
<path d="M14.8827 12.8516C14.8827 12.8516 15.078 13.0469 15.1952 13.2422C15.3515 12.9688 15.7421 12.6953 15.7421 12.6953C15.7421 12.6953 15.7421 13.1641 15.5859 13.4375C15.7812 13.4375 16.0546 13.4766 16.0546 13.4766C16.0546 13.4766 15.9765 13.75 15.7421 13.8281C15.5468 13.9063 15.1171 13.8281 15.1171 13.8281C15.1171 13.8281 14.8046 13.5547 14.7655 13.3203C14.7265 13.0859 14.8827 12.8516 14.8827 12.8516Z" fill="#699635"/>
<path d="M14.5312 13.4766C14.5312 13.4766 14.6875 13.7109 14.7266 13.9062C14.9219 13.6719 15.3906 13.5156 15.3906 13.5156C15.3906 13.5156 15.2734 13.9844 15.0391 14.2188C15.2344 14.2578 15.4687 14.375 15.4687 14.375C15.4687 14.375 15.3125 14.6094 15.0781 14.6484C14.8437 14.6875 14.4922 14.4922 14.4922 14.4922C14.4922 14.4922 14.2578 14.1406 14.2969 13.9062C14.3359 13.6719 14.5312 13.4766 14.5312 13.4766Z" fill="#83BF4F"/>
<path d="M14.0625 14.0234C14.0625 14.0234 14.1406 14.2969 14.1406 14.4922C14.4141 14.3359 14.8828 14.2578 14.8828 14.2578C14.8828 14.2578 14.6484 14.6875 14.375 14.8437C14.5703 14.9219 14.7656 15.0781 14.7656 15.0781C14.7656 15.0781 14.5313 15.2734 14.3359 15.2344C14.1406 15.1953 13.7891 14.9219 13.7891 14.9219C13.7891 14.9219 13.6719 14.5312 13.75 14.2969C13.7891 14.1406 14.0625 14.0234 14.0625 14.0234Z" fill="#699635"/>
<path d="M13.4375 14.4141C13.4375 14.4141 13.4375 14.6875 13.3984 14.8828C13.6719 14.8047 14.1797 14.8437 14.1797 14.8437C14.1797 14.8437 13.8281 15.1953 13.5547 15.2734C13.7109 15.3906 13.8672 15.625 13.8672 15.625C13.8672 15.625 13.5937 15.7422 13.3984 15.6641C13.2031 15.5859 12.9688 15.2344 12.9688 15.2344C12.9688 15.2344 12.9687 14.8047 13.0859 14.6484C13.125 14.4531 13.4375 14.4141 13.4375 14.4141Z" fill="#83BF4F"/>
<path d="M15.625 9.41406L10.1562 14.4531L10.625 14.8828L15.625 9.41406Z" fill="#94989B"/>
<path d="M9.375 9.41406L14.8438 14.4531L14.375 14.8828L9.375 9.41406Z" fill="#94989B"/>
<path d="M11.4062 12.8906H12.9688C12.9688 12.8906 13.3594 12.5 13.3594 11.3281C13.3594 10.1562 12.9688 9.76562 12.9688 9.76562H11.4062C11.4062 9.76562 11.7969 10.1562 11.7969 11.3281C11.7969 12.5 11.4062 12.8906 11.4062 12.8906Z" fill="#FFDD7D"/>
<path d="M12.1094 8.125V8.20313C12.1094 8.24219 12.1094 8.32031 12.1484 8.4375C12.1484 8.47656 12.1875 8.51563 12.1875 8.59375C12.2266 8.63281 12.2266 8.71094 12.2656 8.75C12.3047 8.78906 12.3438 8.86719 12.3828 8.90625C12.4219 8.94531 12.4609 9.02344 12.5391 9.0625C12.6562 9.17969 12.7734 9.25781 12.9297 9.375C13.0078 9.41406 13.0859 9.49219 13.1641 9.53125C13.2422 9.60938 13.3203 9.64844 13.4375 9.72656C13.6328 9.92188 13.7891 10.0781 13.9453 10.3125C14.0234 10.4297 14.1016 10.5078 14.1406 10.625C14.2188 10.7422 14.2578 10.8594 14.2969 10.9766C14.375 11.2109 14.4531 11.4844 14.4531 11.7578C14.4922 12.0313 14.4141 12.2656 14.375 12.5391C14.2969 12.7734 14.1797 13.0078 14.0625 13.2031C14.0234 13.2812 13.9062 13.3594 13.8672 13.4375C13.7891 13.5156 13.7109 13.5938 13.6328 13.6328C13.5547 13.6719 13.4766 13.75 13.3984 13.7891L13.1641 13.9062C13.0469 13.9844 12.8906 14.0234 12.8125 14.0234C12.6172 14.0625 12.5 14.0625 12.5 14.0625C12.5 14.0625 12.5781 13.9844 12.7344 13.8672C12.8125 13.8281 12.8906 13.7109 13.0078 13.6328C13.125 13.5547 13.2031 13.4375 13.3203 13.3203C13.3594 13.2812 13.3984 13.2031 13.4375 13.125C13.4766 13.0469 13.5156 13.0078 13.5547 12.8906C13.6328 12.7344 13.6719 12.5781 13.7109 12.3828C13.75 12.1875 13.75 12.0312 13.7109 11.8359C13.6719 11.6406 13.6328 11.4453 13.5547 11.2891C13.5156 11.2109 13.4766 11.0938 13.4375 11.0156C13.3984 10.9375 13.3594 10.8203 13.2812 10.7422C13.1641 10.5859 13.0859 10.3906 12.9688 10.2734C12.8125 10.1172 12.6953 9.96094 12.5391 9.84375C12.4609 9.76563 12.3828 9.6875 12.3437 9.60938C12.3047 9.53125 12.2266 9.45313 12.1875 9.375L12.0703 9.14063C12.0312 9.0625 11.9922 8.98438 11.9922 8.90625C11.9922 8.82812 11.9531 8.75 11.9531 8.67188V8.47656C11.9531 8.35938 11.9922 8.28125 12.0312 8.24219C12.0703 8.16406 12.1094 8.125 12.1094 8.125Z" fill="#699635"/>
<path d="M9.92187 15.5859C9.80469 15.7031 9.60938 15.7031 9.45312 15.5859C9.33594 15.4688 9.33594 15.2734 9.45312 15.1172L10.3516 14.2188C10.4687 14.1016 10.6641 14.1016 10.8203 14.2188C10.9375 14.3359 10.9375 14.5312 10.8203 14.6875L9.92187 15.5859ZM15.0781 15.5859C15.1953 15.7031 15.3906 15.7031 15.5469 15.5859C15.6641 15.4688 15.6641 15.2734 15.5469 15.1172L14.6484 14.2188C14.5312 14.1016 14.3359 14.1016 14.1797 14.2188C14.0625 14.3359 14.0625 14.5312 14.1797 14.6875L15.0781 15.5859Z" fill="#594640"/>
</g>
<defs>
<clipPath id="clip0_45_4230">
<rect width="25" height="25" fill="white"/>
</clipPath>
</defs>
</svg>
