<svg width="25" height="25" viewBox="0 0 25 25" fill="none" xmlns="http://www.w3.org/2000/svg">
<g clip-path="url(#clip0_45_4175)">
<path d="M24.2188 12.5C24.2188 7.38281 20.9766 3.04688 16.4062 1.44531V23.5547C20.9766 21.9531 24.2188 17.6172 24.2188 12.5Z" fill="#ED4C5C"/>
<path d="M0.78125 12.5C0.78125 17.6172 4.0625 21.9531 8.59375 23.5547V1.44531C4.0625 3.04688 0.78125 7.38281 0.78125 12.5Z" fill="#75A843"/>
<path d="M16.4062 1.44531C15.1953 1.01563 13.8672 0.78125 12.5 0.78125C11.1328 0.78125 9.80469 1.01563 8.59375 1.44531V23.5547C9.80469 23.9844 11.1328 24.2188 12.5 24.2188C13.8672 24.2188 15.1953 23.9844 16.4062 23.5547V1.44531Z" fill="white"/>
<path d="M15.8983 12.3828C15.8592 12.2656 15.8202 12.4219 15.8202 12.4609C15.8202 12.3437 15.7811 12.2656 15.703 12.1484C15.5858 12.2656 15.5467 12.4219 15.5467 12.5781C15.5077 12.4609 15.4686 12.3437 15.3514 12.3047C15.4296 12.4219 15.3905 12.5 15.3905 12.6172C15.3905 12.7734 15.5077 12.8906 15.5077 13.0469C15.5077 13.2031 15.4296 13.3203 15.3124 13.4375V13.3203C14.9217 13.4766 14.9999 13.6719 14.9999 14.0234C14.9999 14.375 14.8046 14.2969 14.5702 14.4922C14.6092 14.4141 14.6092 14.2969 14.5702 14.2188C14.5702 14.4531 14.2577 14.4531 14.2186 14.6484C14.1796 14.7266 14.2186 14.8828 14.1014 14.9219C14.0233 14.9609 13.9061 15.0391 13.9061 15.1172C13.828 15.0781 13.7499 15.0781 13.6327 15.0781C13.6717 15.0391 13.7108 15.0391 13.7499 15C13.3592 14.8047 13.2421 15.2344 12.8905 15.2734C12.7733 15.2734 12.4999 15.1172 12.4999 15.2734C12.8514 15.2734 13.0077 15.5859 13.2811 15.5859C13.5155 15.5859 13.7108 15.3906 13.9452 15.3906C13.9061 15.3906 13.7889 15.3125 13.6717 15.3125C13.8671 15.1953 13.9842 14.9609 14.2186 14.9609C14.6092 14.9609 14.8046 14.8828 14.9217 14.4922C14.8827 14.4922 14.8436 14.4922 14.8046 14.5313C14.8046 14.375 14.9608 14.1797 15.1171 14.1016C15.5077 14.0234 15.4686 13.7109 15.703 13.4375C15.6249 13.4375 15.5467 13.4766 15.4686 13.5547C15.4686 13.3203 15.4296 13.0859 15.6249 12.9297C16.0155 12.7344 15.9764 12.6563 15.8983 12.3828ZM9.10143 12.3828C9.02331 12.6953 8.98424 12.7734 9.29674 12.9688C9.53112 13.125 9.45299 13.3594 9.45299 13.5937C9.37487 13.5156 9.33581 13.4766 9.21862 13.4766C9.45299 13.7109 9.41393 14.0625 9.80456 14.1406C9.92174 14.2188 10.1171 14.4141 10.1171 14.5703C10.078 14.5703 10.0389 14.5313 9.99987 14.5313C10.1171 14.9219 10.3124 15 10.703 15C10.9374 15 11.0546 15.2344 11.2499 15.3516C11.1327 15.3516 11.0155 15.3906 10.9764 15.4297C11.2108 15.4297 11.4061 15.6641 11.6405 15.625C11.9139 15.625 12.1092 15.3125 12.4217 15.3125C12.4217 15.1563 12.1483 15.3125 12.0311 15.3125C11.7186 15.2344 11.6014 14.8438 11.1717 15C11.2108 15.0391 11.2499 15.0781 11.2889 15.0781C11.2108 15.0781 11.0936 15.0391 11.0155 15.1172C10.9764 15.0391 10.8983 14.9609 10.8202 14.9219C10.7421 14.8438 10.7421 14.7266 10.703 14.6484C10.6249 14.4531 10.3514 14.4141 10.3514 14.2188C10.3124 14.2969 10.3124 14.4141 10.3514 14.4922C10.1171 14.2969 9.92174 14.375 9.92174 14.0234C9.92174 13.7109 9.99987 13.4766 9.60924 13.3203V13.4375C9.49206 13.3203 9.41393 13.2422 9.41393 13.0469C9.41393 12.8906 9.57018 12.7734 9.53112 12.6172C9.53112 12.5 9.49206 12.4219 9.57018 12.3047C9.45299 12.3437 9.41393 12.4609 9.37487 12.5781C9.37487 12.4219 9.33581 12.2656 9.21862 12.1484C9.17956 12.2266 9.14049 12.3437 9.10143 12.4609C9.14049 12.3828 9.10143 12.2656 9.10143 12.3828Z" fill="#75A843"/>
<path d="M13.5547 14.7266C13.4766 14.7266 13.4375 14.6484 13.3984 14.6094C13.3984 14.5313 13.7109 14.4531 13.75 14.4531V14.375C13.2422 14.5312 11.7188 14.6484 11.4063 14.1016C11.25 14.3359 10.9766 14.1797 10.7031 13.9844C10.7422 14.0625 10.8984 14.4531 10.8984 14.4141C10.9766 14.4531 11.4844 14.5703 11.4844 14.6875L11.3672 14.8047C12.1875 15.0781 12.6953 15.1563 13.5547 14.7266Z" fill="#428BC1"/>
<path d="M13.0469 14.7265C13.0859 14.6874 13.0859 14.6483 13.0859 14.5702L13.0469 14.453C13.125 14.3749 13.0469 14.1796 12.9297 14.2187C12.8516 14.2577 12.8906 14.2577 12.8125 14.2187C12.7734 14.2187 12.7734 14.1796 12.7344 14.1796H12.0312C11.9531 14.1796 11.9531 14.1405 11.875 14.1405C11.7969 14.1015 11.7578 14.1796 11.7188 14.2187C11.7188 14.2968 11.7578 14.2968 11.7578 14.3358C11.7578 14.3749 11.7188 14.414 11.7188 14.4921C11.7188 14.5702 11.7578 14.6093 11.7969 14.6483C11.6406 14.7655 11.7969 14.9608 11.9531 14.8437C11.9922 14.9218 12.1094 14.9218 12.2266 14.9218H12.6563C12.7344 14.9218 12.8906 14.9608 12.9297 14.8437C13.0469 15.039 13.2031 14.8046 13.0469 14.7265Z" fill="#ED4C5C"/>
<path d="M14.2971 13.711C13.9846 13.3204 13.8283 13.9063 13.4768 13.8673C13.5549 13.3985 12.8518 13.5548 12.6565 13.6719C12.6955 13.6329 12.7346 13.5548 12.7737 13.4766C12.6174 13.4766 12.4221 13.5548 12.3049 13.4376C12.0705 13.2813 11.758 13.2032 11.5627 13.4766C11.4065 13.2423 10.9768 13.0079 10.7424 13.2423C10.7424 13.0079 10.508 12.6563 10.2346 12.6954C9.92209 12.7344 10.0393 13.1251 10.1955 13.2813C10.3127 13.3985 10.469 13.4376 10.6252 13.4376C10.6252 13.5157 10.6643 13.5548 10.7033 13.5938C10.8987 13.7501 11.2893 13.7891 11.4846 13.6329C11.4846 14.0235 12.2658 14.0235 12.4612 13.8282C12.383 14.0235 12.3049 14.4141 12.5783 14.4141C12.8127 14.4141 12.7346 14.1798 12.9299 14.1016C13.0862 14.0235 13.2815 13.9844 13.4377 14.0626C13.7112 14.2188 14.5705 14.1798 14.2971 13.711Z" fill="#428BC1"/>
<path d="M11.0935 12.7345C11.0545 12.6564 10.9764 12.5783 10.9764 12.5783C10.8201 12.6173 10.8201 12.5001 10.781 12.3829C10.742 12.1876 10.4685 12.1095 10.4685 11.9533C10.4685 11.797 10.6248 11.6408 10.5076 11.4845C10.3904 11.3283 10.1951 11.2501 10.1951 11.3283C10.156 11.4064 10.3514 11.4064 10.3514 11.6017C10.3514 11.8361 10.117 12.0314 10.3904 12.2267C10.5467 12.4611 10.5467 12.8908 10.8201 12.8908C10.9373 12.8908 11.0545 12.8517 11.0935 12.7345Z" fill="#75A843"/>
<path d="M11.6793 12.5391C11.6011 12.3829 11.6793 12.1485 11.523 12.0313C11.3277 11.8751 10.9371 12.1876 10.898 11.7969C10.898 11.7188 11.3277 11.2501 11.4058 11.211C11.523 11.0547 11.4839 10.7813 11.3668 10.7032C11.2105 10.6251 11.1714 10.7032 11.0543 10.8594C11.0933 10.8985 11.2496 10.9766 11.2496 11.0157C11.1324 11.2891 10.7808 11.3282 10.7027 11.6016C10.6246 11.7969 10.6636 12.1094 10.8589 12.2266C10.9761 12.3047 11.0543 12.3047 11.1714 12.3047C11.523 12.2657 11.3277 12.3438 11.3668 12.4219C11.3668 12.5001 11.4839 12.7735 11.6793 12.5391ZM10.5074 10.6251C10.5074 10.8594 10.7418 10.8204 10.898 10.7813C10.898 10.7032 10.898 10.6251 10.9371 10.5469C10.8589 10.586 10.7418 10.586 10.7027 10.5469C10.5855 10.4688 10.9761 10.3126 10.9371 10.3126C10.9371 10.3126 10.5464 10.5079 10.7027 10.2735C10.7418 10.1954 10.8199 10.1172 10.8589 10.0391C10.898 9.96099 10.7418 10.0391 10.7418 10.0391C10.7027 10.0391 10.6636 10.0391 10.6246 10.0782C10.3902 10.2735 10.4683 10.3907 10.5074 10.6251Z" fill="#75A843"/>
<path d="M14.6485 10.625C14.4532 10.3516 13.711 9.45312 12.6564 9.375C12.5392 9.375 12.2267 9.49219 12.1095 9.53125C11.7579 9.76562 12.5001 9.96094 12.5392 10.1172C12.5392 10.1953 12.5782 10.2344 12.5782 10.3125C12.461 10.1172 12.3439 10 12.3048 9.92187C12.1095 10 11.797 9.88281 11.7579 9.6875C11.7189 9.76562 11.7189 9.80469 11.6407 9.88281C11.6407 9.76562 11.6017 9.76562 11.5626 9.6875C11.5626 9.80469 11.5626 9.96094 11.4454 10C11.4845 9.92188 11.4454 9.84375 11.4064 9.76562C11.4064 9.88281 11.4064 9.96094 11.3282 10.0391C11.3673 9.96094 11.2892 9.92188 11.2892 9.84375C11.2501 10.1563 10.8204 10.2734 11.2501 10.3906C11.4064 10.4297 11.4845 10.3906 11.6407 10.4687C11.6798 10.5078 11.7579 10.5859 11.7579 10.5469C11.7579 10.5859 11.6017 10.7422 11.7189 10.7813C11.6798 10.8203 11.5626 11.0547 11.5626 11.0547C11.6798 11.0547 11.6017 11.1328 11.5235 11.2109C11.4064 11.4063 11.5235 11.6016 11.5626 11.8359C11.5626 11.7578 11.6798 11.875 11.6798 11.9922C11.6798 12.1484 11.836 12.2266 11.8751 12.3438C11.6798 12.1484 11.6407 12.3437 11.8751 12.4609C11.6798 12.4609 11.6407 12.5781 11.836 12.6563C11.3673 12.6563 11.7579 12.8516 11.836 12.8906C12.1485 12.9688 12.3829 12.7344 12.3829 12.6953C12.3829 12.6953 13.0079 13.3203 13.047 13.3203C13.086 13.3203 13.3985 13.1641 13.4767 13.2422C13.5548 13.3594 13.6329 13.2422 13.711 13.2812C13.7892 13.3594 14.1017 13.2813 14.1798 13.2422C14.2189 13.2422 14.6095 13.1641 14.5314 13.0859C14.336 12.9297 14.1017 12.7734 13.9064 12.6172C13.711 12.4609 13.5157 12.3438 13.3595 12.1875C13.2814 12.1094 13.2814 11.9531 13.2423 11.8359C13.5939 12.1875 13.9454 12.3828 13.9064 11.7188C14.1407 11.9141 14.6095 13.0078 14.6485 13.0078C14.7657 13.0078 14.6485 11.8359 14.6485 11.7188C14.8048 11.875 14.8048 13.1641 14.8439 13.1641C15.0392 13.2031 15.3126 11.4844 14.6485 10.625Z" fill="#89664C"/>
<path d="M11.8359 12.6172C11.7969 12.6172 11.6016 12.3437 11.6016 12.3047C11.7188 12.7734 11.25 12.5 11.3672 12.3047C11.2109 12.2656 10.8203 12.5 10.9766 12.7343C10.8984 12.8906 11.5234 12.7734 11.5625 12.6953C11.7188 13.0468 12.1094 12.6562 11.8359 12.6172ZM13.6719 13.789C13.8672 13.5156 13.0469 13.4375 13.125 13.125C13.0078 13.2031 12.8516 13.4765 12.6953 13.3984C12.6172 13.3593 12.3047 13.5547 12.4609 13.6718C12.4609 13.5156 12.5391 13.6328 12.6563 13.5937C12.6172 13.7109 12.5 13.8281 12.6953 13.9062C12.6172 13.6718 12.9297 13.789 12.8906 13.6718C12.8125 13.5937 13.1641 13.5937 13.2031 13.5937C13.3203 13.5937 13.7109 13.7109 13.5547 13.8281C13.5547 13.8281 13.6328 13.8281 13.6719 13.789ZM11.0547 10.4297C11.0156 10.5078 10.8594 10.625 10.8594 10.7422C10.8594 10.8203 11.0547 11.0156 11.1328 10.8984C10.8984 10.7422 11.1719 10.625 11.2891 10.625C11.3281 10.625 11.3281 10.7031 11.3281 10.7031C11.3672 10.7422 11.6797 10.625 11.6406 10.5468C11.6797 10.3906 11.1719 10.3906 11.0547 10.4297Z" fill="#FFCE31"/>
</g>
<defs>
<clipPath id="clip0_45_4175">
<rect width="25" height="25" fill="white"/>
</clipPath>
</defs>
</svg>
