<svg width="183" height="183" viewBox="0 0 183 183" fill="none" xmlns="http://www.w3.org/2000/svg">
<path fill-rule="evenodd" clip-rule="evenodd" d="M91.1333 91.5083C91.1331 91.5084 91.1335 91.5082 91.1333 91.5083L91.1325 91.5061C55.3826 105.611 14.9308 88.3835 0.572507 52.8279L129.973 0.572248C144.331 36.1278 127.186 76.6145 91.6665 91.2905L91.6673 91.2926L91.6681 91.2947C127.418 77.1897 167.87 94.4169 182.229 129.973L52.828 182.229C38.4696 146.673 55.6152 106.186 91.1348 91.5101L91.1333 91.5083ZM91.1866 91.4867C91.258 91.458 91.3294 91.4293 91.4008 91.4008C91.4722 91.3717 91.5437 91.3426 91.6153 91.3136C91.5436 91.3425 91.4719 91.3713 91.4001 91.3999C91.3608 91.416 91.3215 91.432 91.2821 91.448C91.2503 91.4609 91.2185 91.4738 91.1866 91.4867Z" fill="#FF9331"/>
</svg>
