<svg width="48" height="40" viewBox="0 0 48 40" fill="none" xmlns="http://www.w3.org/2000/svg">
<path d="M43.6364 0H3.63636C2.67194 0 1.74702 0.383116 1.06507 1.06507C0.383116 1.74702 0 2.67194 0 3.63636V36.3636C0 37.3281 0.383116 38.253 1.06507 38.9349C1.74702 39.6169 2.67194 40 3.63636 40H6.67955C7.02365 40.0001 7.36073 39.9026 7.6516 39.7187C7.94247 39.5349 8.17519 39.2722 8.32273 38.9614C9.20686 37.0947 10.6028 35.5174 12.3481 34.4129C14.0934 33.3084 16.1164 32.722 18.1818 32.722C20.2473 32.722 22.2703 33.3084 24.0156 34.4129C25.7609 35.5174 27.1568 37.0947 28.0409 38.9614C28.1884 39.2722 28.4212 39.5349 28.712 39.7187C29.0029 39.9026 29.34 40.0001 29.6841 40H43.6364C44.6008 40 45.5257 39.6169 46.2077 38.9349C46.8896 38.253 47.2727 37.3281 47.2727 36.3636V3.63636C47.2727 2.67194 46.8896 1.74702 46.2077 1.06507C45.5257 0.383116 44.6008 0 43.6364 0ZM12.7273 23.6364C12.7273 22.5576 13.0472 21.503 13.6465 20.606C14.2459 19.709 15.0978 19.0099 16.0945 18.597C17.0911 18.1842 18.1879 18.0762 19.2459 18.2866C20.304 18.4971 21.2759 19.0166 22.0388 19.7794C22.8016 20.5422 23.3211 21.5142 23.5316 22.5722C23.742 23.6303 23.634 24.727 23.2212 25.7237C22.8083 26.7204 22.1092 27.5723 21.2122 28.1717C20.3152 28.771 19.2606 29.0909 18.1818 29.0909C16.7352 29.0909 15.3478 28.5162 14.3249 27.4933C13.3019 26.4704 12.7273 25.083 12.7273 23.6364ZM43.6364 36.3636H30.7795C29.2612 33.7532 26.9725 31.6765 24.2273 30.4182C25.6036 29.1927 26.575 27.5778 27.0126 25.7877C27.4503 23.9975 27.3336 22.1166 26.6779 20.3943C26.0223 18.6721 24.8587 17.1897 23.3413 16.1438C21.824 15.0979 20.0247 14.5378 18.1818 14.5378C16.339 14.5378 14.5396 15.0979 13.0223 16.1438C11.505 17.1897 10.3414 18.6721 9.68572 20.3943C9.03007 22.1166 8.91334 23.9975 9.35099 25.7877C9.78865 27.5778 10.76 29.1927 12.1364 30.4182C9.39114 31.6765 7.10242 33.7532 5.58409 36.3636H3.63636V3.63636H43.6364V36.3636ZM7.27273 12.7273V9.09091C7.27273 8.6087 7.46429 8.14624 7.80526 7.80526C8.14624 7.46429 8.6087 7.27273 9.09091 7.27273H38.1818C38.664 7.27273 39.1265 7.46429 39.4675 7.80526C39.8084 8.14624 40 8.6087 40 9.09091V30.9091C40 31.3913 39.8084 31.8538 39.4675 32.1947C39.1265 32.5357 38.664 32.7273 38.1818 32.7273H34.5455C34.0632 32.7273 33.6008 32.5357 33.2598 32.1947C32.9188 31.8538 32.7273 31.3913 32.7273 30.9091C32.7273 30.4269 32.9188 29.9644 33.2598 29.6234C33.6008 29.2825 34.0632 29.0909 34.5455 29.0909H36.3636V10.9091H10.9091V12.7273C10.9091 13.2095 10.7175 13.6719 10.3766 14.0129C10.0356 14.3539 9.57312 14.5455 9.09091 14.5455C8.6087 14.5455 8.14624 14.3539 7.80526 14.0129C7.46429 13.6719 7.27273 13.2095 7.27273 12.7273Z" fill="white"/>
</svg>
