<svg width="56" height="56" viewBox="0 0 56 56" fill="none" xmlns="http://www.w3.org/2000/svg">
<g clip-path="url(#clip0_33_1037)">
<path fill-rule="evenodd" clip-rule="evenodd" d="M28 56C43.464 56 56 43.464 56 28C56 12.536 43.464 0 28 0C12.536 0 0 12.536 0 28C0 43.464 12.536 56 28 56ZM20.9036 16.0866C20.2725 16.5707 19.9645 17.3675 19.9797 18.4771C19.994 19.5232 20.3233 20.2956 20.9679 20.7942C21.6124 21.2928 22.3809 21.5361 23.2736 21.5241C24.1662 21.512 24.9279 21.2481 25.5585 20.7323C26.2211 20.216 26.5452 19.4348 26.531 18.3887C26.5158 17.2792 26.1703 16.4912 25.4943 16.0247C24.8498 15.5261 24.0812 15.2828 23.1886 15.2948C22.296 15.3069 21.5343 15.5708 20.9036 16.0866ZM30.3241 15.9595C29.693 16.4436 29.385 17.2405 29.4001 18.35C29.4144 19.3961 29.7438 20.1685 30.3883 20.6671C31.0647 21.1653 31.8492 21.4084 32.7419 21.3963C33.6345 21.3843 34.3962 21.1204 35.0268 20.6046C35.6894 20.0883 36.0135 19.3071 35.9993 18.261C35.9841 17.1514 35.6386 16.3634 34.9626 15.897C34.3181 15.3983 33.5495 15.1551 32.6569 15.1671C31.7324 15.1796 30.9548 15.4437 30.3241 15.9595ZM40.8333 26.9051V24.8503H15.1667V26.9051C15.1667 33.9531 20.9123 39.6667 28 39.6667C35.0877 39.6667 40.8333 33.9531 40.8333 26.9051Z" fill="white"/>
</g>
<defs>
<clipPath id="clip0_33_1037">
<rect width="56" height="56" fill="white"/>
</clipPath>
</defs>
</svg>
